<?xml version="1.0" standalone="no"?>
<!DOCTYPE svg PUBLIC "-//W3C//DTD SVG 20010904//EN"
 "http://www.w3.org/TR/2001/REC-SVG-20010904/DTD/svg10.dtd">
<svg version="1.0" xmlns="http://www.w3.org/2000/svg"
 width="344.000000pt" height="344.000000pt" viewBox="0 0 344.000000 344.000000"
 preserveAspectRatio="xMidYMid meet">

<g transform="translate(0.000000,344.000000) scale(0.100000,-0.100000)"
fill="#000000" stroke="none">
<path d="M47 3119 c-46 -36 -50 -79 -23 -240 43 -247 106 -438 197 -593 57
-97 202 -239 297 -291 59 -33 71 -44 67 -60 -31 -118 -36 -204 -33 -567 l3
-373 27 -51 c91 -172 366 -306 752 -366 202 -31 570 -31 771 0 314 49 529 133
666 259 33 31 72 79 87 107 l27 51 3 373 c3 363 -2 449 -33 567 -4 16 8 27 67
60 95 52 240 194 297 291 91 155 154 346 197 593 27 161 23 204 -23 240 -34
28 -92 27 -127 0 -16 -12 -56 -81 -100 -172 -141 -290 -267 -418 -483 -487
-51 -17 -102 -30 -113 -30 -11 0 -53 25 -93 56 -89 68 -225 136 -334 166 -66
18 -83 27 -83 42 0 30 -63 81 -126 102 -85 28 -343 28 -428 0 -63 -21 -126
-72 -126 -102 0 -15 -17 -24 -83 -42 -107 -29 -244 -98 -334 -167 -40 -30 -82
-55 -93 -55 -11 0 -62 14 -115 30 -217 70 -347 203 -490 504 -39 80 -75 143
-91 155 -35 27 -93 28 -127 0z m254 -471 c23 -35 79 -100 124 -144 66 -66 99
-90 176 -127 101 -50 243 -91 350 -102 36 -4 72 -11 79 -15 18 -11 -11 -105
-48 -153 -36 -49 -107 -97 -143 -97 -30 0 -184 63 -254 104 -201 119 -321 328
-399 701 -5 22 5 11 33 -37 22 -37 59 -95 82 -130z m2938 101 c-78 -330 -190
-517 -375 -626 -81 -48 -232 -113 -262 -113 -37 0 -116 53 -148 99 -13 20 -32
60 -40 90 -19 64 -17 66 70 75 107 12 258 56 355 102 77 38 108 60 176 127 79
79 149 173 211 284 15 29 30 51 31 49 1 -1 -7 -40 -18 -87z m-1371 -80 l49
-10 7 -61 c3 -34 6 -264 6 -513 0 -437 1 -453 20 -470 10 -9 31 -18 45 -18 14
0 35 9 45 18 19 17 20 33 20 467 0 246 4 448 8 448 46 0 292 -110 292 -131 0
-5 -11 -9 -24 -9 -13 0 -36 -10 -51 -22 -27 -21 -27 -23 -23 -107 3 -71 10
-99 36 -154 36 -78 132 -181 197 -212 56 -26 135 -31 184 -11 l40 16 11 -38
c6 -20 13 -75 17 -122 7 -102 -3 -127 -72 -188 -124 -109 -394 -198 -697 -231
-125 -14 -391 -14 -516 0 -303 33 -573 122 -697 231 -69 61 -79 86 -72 188 4
47 11 102 17 122 l11 38 40 -16 c49 -20 128 -15 184 11 65 31 161 134 197 212
26 55 33 83 36 154 4 84 4 86 -23 107 -15 12 -38 22 -51 22 -13 0 -24 4 -24 8
0 20 198 114 270 128 l30 7 0 -450 c0 -435 1 -451 20 -468 25 -22 65 -22 90 0
19 17 20 36 22 529 l3 511 45 12 c57 15 244 16 308 2z m-937 -1369 c110 -43
279 -85 426 -107 165 -24 561 -24 726 0 252 38 457 105 588 192 l79 53 0 -200
c0 -228 -4 -243 -76 -307 -253 -222 -980 -309 -1504 -180 -174 44 -325 111
-404 180 -72 64 -76 79 -76 307 l0 200 79 -53 c43 -29 116 -67 162 -85z"/>
<path d="M797 1238 c-51 -39 -58 -158 -12 -204 71 -71 153 45 110 154 -24 58
-61 77 -98 50z"/>
<path d="M2577 1238 c-51 -39 -58 -158 -12 -204 71 -71 153 45 110 154 -24 58
-61 77 -98 50z"/>
<path d="M1158 1093 c-15 -10 -35 -35 -43 -56 -48 -119 84 -226 167 -137 33
36 42 68 33 117 -14 78 -93 116 -157 76z"/>
<path d="M2172 1094 c-65 -45 -68 -150 -6 -206 56 -49 153 -6 168 76 18 98
-87 183 -162 130z"/>
<path d="M1663 1064 c-82 -40 -93 -149 -22 -209 24 -19 42 -25 79 -25 134 0
175 177 55 234 -41 20 -71 20 -112 0z"/>
</g>
</svg>
